<svg xmlns="http://www.w3.org/2000/svg" viewBox="0 0 64 64" width="64px" height="64px"><circle cx="32" cy="33" r="6" fill="#ed7899"/><path fill="#8d6c9f" d="M32,40c-3.859,0-7-3.141-7-7s3.141-7,7-7s7,3.141,7,7S35.859,40,32,40z M32,28 c-2.757,0-5,2.243-5,5s2.243,5,5,5s5-2.243,5-5S34.757,28,32,28z"/><path fill="#8d6c9f" d="M32,46C15.178,46,2,40.29,2,33s13.178-13,30-13s30,5.71,30,13S48.822,46,32,46z M32,22 C16.822,22,4,27.037,4,33s12.822,11,28,11s28-5.037,28-11S47.178,22,32,22z"/><path fill="#8d6c9f" d="M20.316,59.827c-1.222,0-2.335-0.28-3.316-0.847c-3.149-1.818-4.425-6.291-3.593-12.596 c0.793-6.004,3.397-13.065,7.334-19.885c3.938-6.819,8.752-12.606,13.555-16.295C39.341,6.332,43.853,5.202,47,7.02l0,0 c3.149,1.818,4.425,6.291,3.593,12.596C49.8,25.619,47.195,32.681,43.259,39.5c-3.938,6.819-8.752,12.606-13.555,16.295 C26.232,58.46,23.013,59.827,20.316,59.827z M43.684,8.179c-2.234,0-5.079,1.239-8.17,3.613c-4.6,3.532-9.23,9.11-13.04,15.708 c-3.809,6.598-6.324,13.396-7.084,19.146c-0.709,5.371,0.243,9.234,2.61,10.602s6.187,0.26,10.486-3.04 c4.6-3.532,9.23-9.11,13.04-15.708c3.809-6.598,6.324-13.396,7.084-19.146c0.709-5.371-0.243-9.234-2.61-10.602l0,0 C45.336,8.368,44.556,8.179,43.684,8.179z"/><path fill="#8d6c9f" d="M43.684,59.827c-2.696,0-5.916-1.367-9.388-4.032c-4.803-3.688-9.617-9.476-13.555-16.295 c-3.937-6.819-6.541-13.881-7.334-19.885C12.575,13.311,13.851,8.838,17,7.02c3.15-1.816,7.661-0.686,12.704,3.186 c4.803,3.688,9.617,9.476,13.555,16.295c3.937,6.819,6.541,13.881,7.334,19.885C51.425,52.689,50.149,57.162,47,58.98 C46.019,59.547,44.904,59.827,43.684,59.827z M20.316,8.179c-0.873,0-1.651,0.189-2.316,0.573l0,0 c-2.367,1.367-3.319,5.23-2.61,10.602c0.76,5.75,3.275,12.549,7.084,19.146c3.81,6.598,8.44,12.176,13.04,15.708 c4.298,3.3,8.119,4.407,10.486,3.04s3.319-5.23,2.61-10.602c-0.76-5.75-3.275-12.549-7.084-19.146 c-3.81-6.598-8.44-12.176-13.04-15.708C25.396,9.419,22.551,8.179,20.316,8.179z"/><path fill="#8d6c9f" d="M10.463,46.972c-0.044,0-0.088-0.003-0.133-0.009l-1.982-0.264 c-0.548-0.073-0.933-0.575-0.859-1.123c0.072-0.548,0.572-0.933,1.123-0.859l1.982,0.264c0.548,0.073,0.933,0.575,0.859,1.123 C11.387,46.606,10.957,46.972,10.463,46.972z"/><path fill="#8d6c9f" d="M8.194,51.885c-0.536,0-0.98-0.426-0.998-0.967c-0.019-0.552,0.413-1.014,0.966-1.032 l1.998-0.067c0.551-0.037,1.015,0.413,1.033,0.966c0.019,0.552-0.413,1.014-0.966,1.032l-1.999,0.067 C8.218,51.885,8.206,51.885,8.194,51.885z"/><path fill="#8d6c9f" d="M9.009,57.093c-0.429,0-0.825-0.277-0.956-0.708c-0.161-0.528,0.136-1.087,0.664-1.248 l1.913-0.584c0.53-0.166,1.088,0.136,1.248,0.664c0.162,0.528-0.136,1.087-0.664,1.248l-1.913,0.584 C9.203,57.079,9.105,57.093,9.009,57.093z"/><path fill="#8d6c9f" d="M11.552,61.852c-0.281,0-0.561-0.118-0.759-0.349c-0.359-0.419-0.312-1.051,0.107-1.41 l1.518-1.303c0.418-0.358,1.049-0.312,1.41,0.107c0.359,0.419,0.312,1.051-0.107,1.41l-1.518,1.303 C12.015,61.772,11.783,61.852,11.552,61.852z"/><path fill="#8d6c9f" d="M55.771,18.718c-0.02,0-0.039-0.001-0.059-0.002l-1.996-0.115 c-0.552-0.031-0.973-0.504-0.94-1.056c0.031-0.551,0.507-0.971,1.056-0.94l1.996,0.115c0.552,0.031,0.973,0.504,0.94,1.056 C56.737,18.307,56.296,18.718,55.771,18.718z"/><path fill="#8d6c9f" d="M53.591,13.797c-0.487,0-0.913-0.355-0.988-0.852c-0.082-0.546,0.295-1.056,0.841-1.138 l1.978-0.297c0.548-0.072,1.056,0.296,1.138,0.841c0.082,0.546-0.295,1.056-0.841,1.138l-1.978,0.297 C53.69,13.793,53.64,13.797,53.591,13.797z"/><path fill="#8d6c9f" d="M52.215,9.336c-0.36,0-0.708-0.194-0.887-0.536c-0.257-0.488-0.067-1.093,0.422-1.35l1.771-0.929 c0.488-0.256,1.093-0.068,1.35,0.422c0.257,0.488,0.067,1.093-0.422,1.35l-1.771,0.929C52.53,9.299,52.371,9.336,52.215,9.336z"/><path fill="#8d6c9f" d="M49.266,5.919c-0.2,0-0.402-0.06-0.578-0.185c-0.45-0.32-0.556-0.944-0.236-1.395l1.158-1.631 c0.32-0.45,0.943-0.557,1.395-0.236c0.45,0.32,0.556,0.944,0.236,1.395l-1.158,1.631C49.887,5.772,49.579,5.919,49.266,5.919z"/></svg>