<svg xmlns="http://www.w3.org/2000/svg" viewBox="0 0 64 64" width="64px" height="64px"><path fill="#c2cde7" d="M45,42.22V39.78a1,1,0,0,0-.76-1l-5.09-1.27a1,1,0,0,1-.72-.72A15.88,15.88,0,0,0,36.87,33a1,1,0,0,1,0-1l2.7-4.51a1,1,0,0,0-.15-1.22l-1.72-1.72a1,1,0,0,0-1.22-.15L32,27.13a1,1,0,0,1-1,0,15.88,15.88,0,0,0-3.78-1.57,1,1,0,0,1-.72-.72l-1.27-5.09a1,1,0,0,0-1-.76H21.78a1,1,0,0,0-1,.76l-1.27,5.09a1,1,0,0,1-.72.72A15.87,15.87,0,0,0,15,27.13a1,1,0,0,1-1,0l-4.51-2.7a1,1,0,0,0-1.22.15L6.58,26.31a1,1,0,0,0-.15,1.22L9.13,32a1,1,0,0,1,0,1,15.88,15.88,0,0,0-1.57,3.78,1,1,0,0,1-.72.72L1.76,38.81a1,1,0,0,0-.76,1v2.44a1,1,0,0,0,.76,1l5.09,1.27a1,1,0,0,1,.72.72A15.88,15.88,0,0,0,9.13,49a1,1,0,0,1,0,1l-2.7,4.51a1,1,0,0,0,.15,1.22l1.72,1.72a1,1,0,0,0,1.22.15L14,54.87a1,1,0,0,1,1,0,15.88,15.88,0,0,0,3.78,1.57,1,1,0,0,1,.72.72l1.27,5.09a1,1,0,0,0,1,.76h2.44a1,1,0,0,0,1-.76l1.27-5.09a1,1,0,0,1,.72-.72A15.88,15.88,0,0,0,31,54.87a1,1,0,0,1,1,0l4.51,2.7a1,1,0,0,0,1.22-.15l1.72-1.72a1,1,0,0,0,.15-1.22L36.87,50a1,1,0,0,1,0-1,15.88,15.88,0,0,0,1.57-3.78,1,1,0,0,1,.72-.72l5.09-1.27A1,1,0,0,0,45,42.22Z"/><path fill="#acb7d0" d="M23 30A11 11 0 1 0 23 52A11 11 0 1 0 23 30Z"/><path fill="#c2cde7" d="M62.36,10.68l-.75-1.85-4.18.79a9.94,9.94,0,0,0-2.89-2.95l.86-4.17-1.84-.78-2.4,3.51A9.94,9.94,0,0,0,47,5.2L44.68,1.64l-1.85.75.79,4.18a9.94,9.94,0,0,0-2.95,2.89L36.5,8.61l-.78,1.84,3.51,2.4a9.94,9.94,0,0,0,0,4.13l-3.56,2.34.75,1.85,4.18-.79a9.94,9.94,0,0,0,2.89,2.95l-.86,4.17,1.84.78,2.4-3.51a9.94,9.94,0,0,0,4.13,0l2.34,3.56,1.85-.75-.79-4.18a9.94,9.94,0,0,0,2.95-2.89l4.17.86.78-1.84-3.51-2.4a9.94,9.94,0,0,0,0-4.13Z"/><path fill="#f9dd8f" d="M49 10A5 5 0 1 0 49 20 5 5 0 1 0 49 10zM23 35A6 6 0 1 0 23 47 6 6 0 1 0 23 35z"/><path fill="#8d6c9f" d="M30.8 31.76a1 1 0 0 0-1.24 1.57A10.91 10.91 0 0 1 31 34.7a1 1 0 0 0 1.5-1.32A12.9 12.9 0 0 0 30.8 31.76zM19 31.63a1 1 0 0 0 .32-.05 10.94 10.94 0 0 1 6.91 0 1 1 0 0 0 .63-1.9 13 13 0 0 0-8.18 0A1 1 0 0 0 19 31.63zM15.07 47.2l-1.29 1.29A1 1 0 1 0 15.2 49.9l1.29-1.29a1 1 0 0 0-1.41-1.41zM14.56 44.35a1 1 0 0 0-1.31-.53l-1.67.71a1 1 0 1 0 .78 1.84L14 45.66A1 1 0 0 0 14.56 44.35zM11 42l1.82 0a1 1 0 0 0 1-1 1 1 0 0 0-1-1L11 40a1 1 0 0 0 0 2zM11.45 37.52l1.7.65a1 1 0 1 0 .72-1.87l-1.7-.65a1 1 0 0 0-.72 1.87zM23 34a7 7 0 1 0 7 7A7 7 0 0 0 23 34zm0 12a5 5 0 1 1 5-5A5 5 0 0 1 23 46z"/><path fill="#8d6c9f" d="M23 39A2 2 0 1 0 23 43 2 2 0 1 0 23 39zM49 9a6 6 0 1 0 6 6A6 6 0 0 0 49 9zm0 10.24A4.24 4.24 0 1 1 53.24 15 4.25 4.25 0 0 1 49 19.24z"/><path fill="#8d6c9f" d="M49 13A2 2 0 1 0 49 17 2 2 0 1 0 49 13zM44.49 37.84L39.4 36.56a16.53 16.53 0 0 0-1.68-4L40.43 28a2 2 0 0 0-.3-2.44L38.4 23.87a2 2 0 0 0-2.44-.3l-4.5 2.69a16.52 16.52 0 0 0-4-1.66l-1.27-5.09A2 2 0 0 0 24.22 18H21.78a2 2 0 0 0-1.94 1.51L18.56 24.6a16.53 16.53 0 0 0-4 1.68L10 23.57a2 2 0 0 0-2.44.3L5.87 25.6A2 2 0 0 0 5.57 28l2.69 4.5a16.52 16.52 0 0 0-1.66 4L1.51 37.84A2 2 0 0 0 0 39.78v2.44a2 2 0 0 0 1.51 1.94L6.6 45.44a16.53 16.53 0 0 0 1.68 4L5.57 54a2 2 0 0 0 .3 2.44L7.6 58.13a2 2 0 0 0 2.44.3l4.5-2.69a16.52 16.52 0 0 0 4 1.66l1.27 5.09A2 2 0 0 0 21.78 64h2.44a2 2 0 0 0 1.94-1.51l1.28-5.09a16.53 16.53 0 0 0 4-1.68L36 58.43a2 2 0 0 0 2.44-.3l1.72-1.72a2 2 0 0 0 .3-2.44l-2.69-4.5a16.52 16.52 0 0 0 1.66-4l5.09-1.27A2 2 0 0 0 46 42.22V39.78A2 2 0 0 0 44.49 37.84zM44 42.22l-5.09 1.27a2 2 0 0 0-1.44 1.43A14.89 14.89 0 0 1 36 48.46a2 2 0 0 0 0 2L38.71 55 37 56.71 32.48 54a2 2 0 0 0-2 0 14.91 14.91 0 0 1-3.54 1.47 2 2 0 0 0-1.42 1.44L24.22 62H21.78l-1.27-5.09a2 2 0 0 0-1.42-1.44A14.92 14.92 0 0 1 15.54 54a2 2 0 0 0-1-.27 2 2 0 0 0-1 .28L9 56.71 7.29 55l2.7-4.5a2 2 0 0 0 0-2 14.92 14.92 0 0 1-1.47-3.54 2 2 0 0 0-1.44-1.43L2 42.22V39.78l5.09-1.27a2 2 0 0 0 1.44-1.42A14.92 14.92 0 0 1 10 33.54a2 2 0 0 0 0-2L7.29 27 9 25.29l4.5 2.7a2 2 0 0 0 2 0 14.92 14.92 0 0 1 3.54-1.47 2 2 0 0 0 1.43-1.44L21.78 20h2.44l1.27 5.09a2 2 0 0 0 1.43 1.44A14.9 14.9 0 0 1 30.46 28a2 2 0 0 0 2 0L37 25.29 38.71 27 36 31.52a2 2 0 0 0 0 2 14.91 14.91 0 0 1 1.47 3.54 2 2 0 0 0 1.44 1.42L44 39.78z"/><path fill="#8d6c9f" d="M62.84,18.72l-3-2a10.83,10.83,0,0,0,0-3.2l3-2a1,1,0,0,0,.38-1.21l-.75-1.85a1,1,0,0,0-1.11-.61l-3.54.67a10.84,10.84,0,0,0-2.24-2.28l.73-3.53a1,1,0,0,0-.59-1.12L53.94.8a1,1,0,0,0-1.22.36l-2,3a10.83,10.83,0,0,0-3.2,0l-2-3A1,1,0,0,0,44.31.72l-1.85.75a1,1,0,0,0-.61,1.11l.67,3.54a10.86,10.86,0,0,0-2.28,2.24l-3.53-.73a1,1,0,0,0-1.12.59l-.78,1.84a1,1,0,0,0,.36,1.22l3,2a10.82,10.82,0,0,0,0,3.2l-3,2a1,1,0,0,0-.38,1.21l.75,1.85a1,1,0,0,0,1.11.61l3.54-.67a10.84,10.84,0,0,0,2.24,2.28l-.73,3.53a1,1,0,0,0,.59,1.12l1.84.78a1,1,0,0,0,1.22-.36l2-3a10.87,10.87,0,0,0,3.2,0l2,3a1,1,0,0,0,1.21.38l1.85-.75a1,1,0,0,0,.61-1.11l-.67-3.54a10.84,10.84,0,0,0,2.28-2.24l3.53.73a1,1,0,0,0,1.12-.59l.78-1.84A1,1,0,0,0,62.84,18.72ZM60.9,20.25l-3.36-.7a1,1,0,0,0-1,.43,8.9,8.9,0,0,1-2.65,2.6,1,1,0,0,0-.44,1L54,27l-.33.13-1.89-2.87A1,1,0,0,0,51,23.8l-.2,0a8.89,8.89,0,0,1-3.71,0,1,1,0,0,0-1,.41L44.09,27l-.33-.14.7-3.36a1,1,0,0,0-.43-1,8.9,8.9,0,0,1-2.6-2.65,1,1,0,0,0-1-.44L37,20l-.13-.33,2.87-1.89a1,1,0,0,0,.43-1,8.89,8.89,0,0,1,0-3.72,1,1,0,0,0-.41-1L37,10.09l.14-.33,3.36.7a1,1,0,0,0,1-.43,8.9,8.9,0,0,1,2.65-2.6,1,1,0,0,0,.44-1L44,3l.33-.13,1.89,2.87a1,1,0,0,0,1,.43,8.92,8.92,0,0,1,3.72,0,1,1,0,0,0,1-.41L53.91,3l.33.14-.7,3.36a1,1,0,0,0,.43,1,8.9,8.9,0,0,1,2.6,2.65,1,1,0,0,0,1,.44L61,10l.13.33-2.87,1.89a1,1,0,0,0-.43,1,8.9,8.9,0,0,1,0,3.72,1,1,0,0,0,.41,1L61,19.91Z"/></svg>