<svg id="Layer_35" enable-background="new 0 0 64 64" height="512" viewBox="0 0 64 64" width="512" xmlns="http://www.w3.org/2000/svg"><path d="m50.414 15h-2.828l-2.892 2.892c.496.447.967.918 1.414 1.414z"/><path d="m13.9 15.314 3.992 3.992c.447-.496.918-.967 1.414-1.414l-3.992-3.992c-.411.529-.885 1.003-1.414 1.414z"/><path d="m50.414 49-4.306-4.306c-.447.496-.918.967-1.414 1.414l2.892 2.892z"/><path d="m15.656 46.93 1.414 1.414 2.235-2.235c-.496-.447-.967-.918-1.414-1.414z"/><path d="m19.301 43.263c.809.911 1.713 1.733 2.699 2.454v-4.717h2v5.992c1.954 1.047 4.134 1.719 6.448 1.93l-5.853-13.613c-2.648 1.83-4.583 4.632-5.294 7.954z"/><path d="m39.406 35.308-5.853 13.613c2.313-.211 4.494-.883 6.448-1.93v-5.991h2v4.717c.986-.721 1.889-1.543 2.699-2.454-.712-3.322-2.647-6.124-5.294-7.955z"/><path d="m32.355 33.016c-.119-.003-.235-.016-.355-.016s-.236.013-.355.016l-1.63 9.836 1.985 4.616 1.985-4.617z"/><circle cx="32" cy="25" r="6"/><path d="m17.771 41.275c1.534-4.647 5.223-8.198 9.821-9.605-2.162-1.434-3.592-3.887-3.592-6.67 0-4.411 3.589-8 8-8s8 3.589 8 8c0 2.783-1.43 5.236-3.592 6.669 4.598 1.407 8.287 4.958 9.821 9.605 1.746-2.669 2.771-5.852 2.771-9.274 0-9.374-7.626-17-17-17s-17 7.626-17 17c0 3.422 1.025 6.605 2.771 9.275zm29.229-9.275c0 1.082-.116 2.163-.346 3.213l-1.953-.426c.198-.91.299-1.848.299-2.787 0-1.95-.421-3.824-1.251-5.57l1.807-.859c.958 2.016 1.444 4.179 1.444 6.429zm-4.286-10.498c.584.595 1.121 1.243 1.597 1.927l-1.641 1.143c-.412-.592-.878-1.153-1.384-1.669zm-25.368 13.712c-.153-.698-.256-1.411-.306-2.12l1.994-.143c.044.614.133 1.231.265 1.835zm1.476-10.385 1.756.957c-.296.542-.554 1.11-.769 1.688l-1.875-.695c.249-.669.546-1.324.888-1.95zm.469 4.425c-.129.6-.216 1.218-.259 1.839l-1.996-.139c.05-.716.151-1.429.3-2.12z"/><path d="m28.552 39.449 1.031-6.222c-1.14.214-2.229.576-3.247 1.068z"/><path d="m37.664 34.295c-1.018-.492-2.108-.854-3.247-1.068l1.031 6.222z"/><path d="m3.09 10c.423 2.507 2.403 4.486 4.91 4.91v-1.91h2v1.91c2.507-.423 4.486-2.403 4.91-4.91h-1.91v-2h1.91c-.424-2.507-2.403-4.486-4.91-4.91v1.91h-2v-1.91c-2.507.424-4.486 2.403-4.91 4.91h1.91v2zm4.91-3h2v1.586l1.707 1.707-1.414 1.414-2.293-2.293z"/><path d="m58.147 8.733 2.853 2.853v-6.587l-2.4 3.2c-.141.188-.295.363-.453.534z"/><path d="m53 9c1.565 0 3.061-.748 4-2l3-4h-14l3 4c.939 1.252 2.435 2 4 2z"/><path d="m47.4 8.199-2.4-3.2v6.587l2.853-2.853c-.158-.171-.312-.346-.453-.534z"/><path d="m56.583 9.997c-1.074.64-2.309 1.003-3.583 1.003s-2.509-.363-3.583-1.003l-3.003 3.003h13.172z"/><path d="m56 51h-11v5c0 2.757 2.243 5 5 5h6c2.757 0 5-2.243 5-5s-2.243-5-5-5zm-9 2h2v2h-2zm12 6h-12v-2h12zm0-4h-8v-2h8z"/><path d="m15.308 51.168.561-1.198-1.838-1.838-1.198.561-1.031-.427-.202-.442-.301-.824h-2.598l-.453 1.246-1.08.446-1.198-.56-1.838 1.838.561 1.198-.427 1.031-.442.202-.824.3v2.598l1.246.453.446 1.08-.56 1.198 1.838 1.838 1.198-.561 1.031.427.202.442.3.824h2.598l.453-1.246 1.08-.446 1.198.561 1.838-1.838-.561-1.198.427-1.031.442-.202.823-.3v-2.598l-1.246-.453zm-5.308 7.832c-2.757 0-5-2.243-5-5s2.243-5 5-5 5 2.243 5 5-2.243 5-5 5z"/><circle cx="10" cy="54" r="3"/><path d="m60 29c-1.302 0-2.402.839-2.816 2h-6.234c.017.333.05.662.05 1s-.033.667-.05 1h6.235c.414 1.161 1.514 2 2.816 2 1.654 0 3-1.346 3-3s-1.347-3-3.001-3z"/><path d="m59 39c-1.302 0-2.402.839-2.816 2h-1.184c-.552 0-1-.448-1-1v-2c0-1.654-1.346-3-3-3h-.259c-.108.68-.25 1.346-.428 2h.687c.552 0 1 .448 1 1v2c0 1.654 1.346 3 3 3h1.184c.414 1.161 1.514 2 2.816 2 1.654 0 3-1.346 3-3s-1.346-3-3-3z"/><path d="m56.184 21h-1.184c-1.654 0-3 1.346-3 3v2c0 .552-.448 1-1 1h-.687c.178.654.32 1.32.428 2h.259c1.654 0 3-1.346 3-3v-2c0-.552.448-1 1-1h1.184c.414 1.161 1.514 2 2.816 2 1.654 0 3-1.346 3-3s-1.346-3-3-3c-1.302 0-2.402.839-2.816 2z"/><path d="m6.816 33h6.235c-.018-.333-.051-.662-.051-1s.033-.667.05-1h-6.234c-.414-1.161-1.514-2-2.816-2-1.654 0-3 1.346-3 3s1.346 3 3 3c1.302 0 2.402-.839 2.816-2z"/><path d="m7.816 43h1.184c1.654 0 3-1.346 3-3v-2c0-.552.448-1 1-1h.687c-.178-.654-.32-1.32-.428-2h-.259c-1.654 0-3 1.346-3 3v2c0 .552-.448 1-1 1h-1.184c-.414-1.161-1.514-2-2.816-2-1.654 0-3 1.346-3 3s1.346 3 3 3c1.302 0 2.402-.839 2.816-2z"/><path d="m5 25c1.302 0 2.402-.839 2.816-2h1.184c.552 0 1 .448 1 1v2c0 1.654 1.346 3 3 3h.259c.108-.68.25-1.346.428-2h-.687c-.552 0-1-.448-1-1v-2c0-1.654-1.346-3-3-3h-1.184c-.414-1.161-1.514-2-2.816-2-1.654 0-3 1.346-3 3s1.346 3 3 3z"/></svg>