<svg xmlns="http://www.w3.org/2000/svg" viewBox="0 0 64 64" width="64px" height="64px"><path fill="#f9dd8f" d="M8,41l17-8l7,2l7-2l17,8c3.067,1.2,5,5.167,5,8.46V57c0,1.105-0.895,2-2,2H5c-1.105,0-2-0.895-2-2 v-7.54C3,46.167,4.933,42.2,8,41z"/><path fill="#efc88e" d="M32,45c5.16,0,11-3,14-9l-7-3l-7,2l-6-2l-8,3C20.926,40.076,26.84,45,32,45z"/><path fill="#8d6c9f" d="M59,60H5c-1.654,0-3-1.346-3-3v-7.672c0-4.229,2.469-8.131,6.291-9.941l16.564-7.418L32,32.99 l7.145-1.021l16.544,7.409C59.531,41.197,62,45.1,62,49.328V57C62,58.654,60.654,60,59,60z M9.138,41.199 C6.016,42.682,4,45.872,4,49.328V57c0,0.551,0.449,1,1,1h54c0.551,0,1-0.449,1-1v-7.672c0-3.46-2.021-6.652-5.147-8.133 l-15.998-7.164L32,35.01l-6.855-0.979L9.138,41.199z"/><path fill="#faefde" d="M44.921,19.612c-0.224-2.344-0.86-4.836-0.557-5.948C44.553,12.97,44,13,47,14C43,4,37.839,3,32,3 c-3.391,0-5.912,0.584-8,2c-4.562,0-5.156,7.205-5.225,14.134C17.69,18.721,17,19.543,17,21c0,1.578,1.011,4.931,3,6 c1.529,7.461,7,12,12,12s10-5,12-12c2.22-0.944,3-4.357,3-6C47,19.273,46.306,18.532,44.921,19.612z"/><path fill="#cda1a7" d="M26,11c3,2,9.353,3,12,3c3.888,0,4,0,6,0c0,0,2-1,3,0C44,5,37.058,3,34,3h-4c-1.612,0-4,1-5,2 c-2.805-0.896-6,2.492-6,7v6C22,17,25,12,26,11z"/><path fill="#8d6c9f" d="M27.92,12.88c2.864,1.39,6.006,2.115,9.19,2.12h2.55c0.552,0,1-0.448,1-1s-0.448-1-1-1h-2.55 c-2.883-0.004-5.727-0.661-8.32-1.92l-1.56-0.76c-0.905-0.442-1.998-0.142-2.55,0.7l-1.6,2.43 c-0.296,0.466-0.158,1.084,0.308,1.38c0.455,0.289,1.058,0.165,1.362-0.28l1.6-2.43L27.92,12.88z"/><path fill="#8d6c9f" d="M46.28,18.12c-0.141-0.036-0.285-0.056-0.43-0.06c-0.172-1.179-0.48-2.333-0.92-3.44v-0.11 c0.474,0.057,0.938,0.178,1.38,0.36c0.51,0.212,1.095-0.03,1.307-0.54c0.079-0.19,0.097-0.4,0.053-0.6C46,6.41,40.56,2,33,2h-1 c-2.57,0.011-5.092,0.701-7.31,2C21,4.14,18.42,6.76,18,10.9c-0.185,1.865-0.141,3.746,0.13,5.6c0.054,0.331,0.084,0.665,0.09,1 c0,0.187-0.03,0.373-0.09,0.56c-0.148,0.004-0.296,0.024-0.44,0.06c-1.65,0.44-2.34,2.85-1.6,5.61c0.54,2,1.66,3.5,2.88,4 c0.623,1.858,1.48,3.628,2.55,5.27l-0.003,0.002c0.304,0.616,1.183,1.678,1.183,1.678C25.16,37.79,28.4,40,32,40 c3.584,0,6.811-2.192,9.267-5.271C41.635,34.271,42.48,33,42.48,33c1.059-1.643,1.906-3.414,2.52-5.27c1.23-0.46,2.35-2,2.88-4 C48.62,20.98,47.88,18.57,46.28,18.12z M45.95,23.25c-0.5,1.85-1.44,2.62-1.73,2.62c-0.459-0.018-0.872,0.279-1,0.72 C41.59,32.26,37.18,38,32,38s-9.59-5.74-11.28-11.4c-0.123-0.423-0.509-0.716-0.95-0.72h-0.02c-0.29,0-1.24-0.78-1.73-2.62 c-0.49-1.84-0.05-3.09,0.18-3.15c0.099,0.017,0.191,0.058,0.27,0.12c0.468,0.293,1.085,0.152,1.378-0.316 c0.091-0.146,0.143-0.312,0.152-0.484c0.024-0.516,0.081-1.031,0.17-1.54c0.052-0.548,0.025-1.1-0.08-1.64 c-0.239-1.707-0.269-3.436-0.09-5.15C20.31,7.91,22.19,6,25,6c0.216,0,0.427-0.07,0.6-0.2C27.523,4.613,29.74,3.99,32,4h1 c6.07,0,10.45,3.1,12.25,8.58c-0.673-0.131-1.37,0.045-1.9,0.48c-0.576,0.627-0.693,1.55-0.29,2.3 c0.533,1.294,0.838,2.672,0.9,4.07c0.028,0.552,0.498,0.976,1.049,0.948c0.174-0.009,0.344-0.063,0.49-0.158 c0.08-0.06,0.172-0.101,0.27-0.12C46.01,20.18,46.45,21.4,45.95,23.25z"/><g><path fill="#8d6c9f" d="M7 56c-.552 0-1-.448-1-1v-2c0-.552.448-1 1-1s1 .448 1 1v2C8 55.552 7.552 56 7 56zM37 56c-.552 0-1-.448-1-1v-2c0-.552.448-1 1-1s1 .448 1 1v2C38 55.552 37.552 56 37 56zM42 56c-.552 0-1-.448-1-1v-2c0-.552.448-1 1-1s1 .448 1 1v2C43 55.552 42.552 56 42 56zM52 56c-.552 0-1-.448-1-1v-2c0-.552.448-1 1-1s1 .448 1 1v2C53 55.552 52.552 56 52 56zM57 56c-.552 0-1-.448-1-1v-2c0-.552.448-1 1-1s1 .448 1 1v2C58 55.552 57.552 56 57 56zM47 56c-.552 0-1-.448-1-1v-2c0-.552.448-1 1-1s1 .448 1 1v2C48 55.552 47.552 56 47 56zM12 56c-.552 0-1-.448-1-1v-2c0-.552.448-1 1-1s1 .448 1 1v2C13 55.552 12.552 56 12 56zM17 56c-.552 0-1-.448-1-1v-2c0-.552.448-1 1-1s1 .448 1 1v2C18 55.552 17.552 56 17 56zM22 56c-.552 0-1-.448-1-1v-2c0-.552.448-1 1-1s1 .448 1 1v2C23 55.552 22.552 56 22 56zM27 56c-.552 0-1-.448-1-1v-2c0-.552.448-1 1-1s1 .448 1 1v2C28 55.552 27.552 56 27 56zM32 56c-.552 0-1-.448-1-1v-2c0-.552.448-1 1-1s1 .448 1 1v2C33 55.552 32.552 56 32 56z"/></g></svg>