<svg width="118" height="156" viewBox="0 0 118 156" fill="none" xmlns="http://www.w3.org/2000/svg">
<path d="M59 152.5H9.13833C4.99285 152.5 2.64796 147.745 5.1714 144.456L39.3537 99.9044C41.4089 97.2256 40.3162 93.1869 37.4034 91.4793C28.2456 86.1107 12 72.9941 12 47.5C12 14.735 52.463 5.39592 58.6977 4.15137C59.2473 4.04167 59.7531 4.04214 60.3024 4.15306C66.4992 5.40432 106.5 14.7498 106.5 47.5C106.5 73.003 89.9852 86.1199 80.6838 91.485C77.7401 93.1829 76.6386 97.2563 78.7218 99.9412L113.243 144.435C115.792 147.72 113.45 152.5 109.292 152.5H59.5001" stroke="black" stroke-width="7"/>
</svg>
