<svg xmlns="http://www.w3.org/2000/svg" xmlns:xlink="http://www.w3.org/1999/xlink" width="197" height="202" viewBox="0 0 197 202">
  <defs>
    <clipPath id="clip-path">
      <rect id="Retângulo_3" data-name="Retângulo 3" width="197" height="202" transform="translate(418 188)" fill="#d2d2d2"/>
    </clipPath>
  </defs>
  <g id="Grupo_de_máscara_3" data-name="Grupo de máscara 3" transform="translate(-418 -188)" clip-path="url(#clip-path)">
    <g id="GitHub" transform="translate(418 189.73)">
      <rect id="Retângulo_4" data-name="Retângulo 4" width="197" height="197" rx="29.55" fill="#1b1817"/>
      <path id="Caminho_7" data-name="Caminho 7" d="M128.9,192c5.387,0,4.617,6.541,4.617,6.541H63.486S62.717,192,68.1,192c5,0,6.156-2.309,6.156-4.617l-.385-19.238c-27.318,6.156-33.09-10.773-33.09-10.773-4.617-11.543-10.773-14.236-10.773-14.236-9.234-6.156.385-6.156.385-6.156,10,.77,15.391,10,15.391,10,8.465,15.006,22.7,10.773,28.473,8.465a22.064,22.064,0,0,1,6.156-13.467C58.484,139.67,35.783,131.205,35.783,93.5a38.981,38.981,0,0,1,10-26.549c-1.154-2.309-4.232-12.312,1.154-25.779,0,0,8.08-2.693,26.934,10a89.287,89.287,0,0,1,49.25,0c18.854-12.7,26.934-10,26.934-10,5.387,13.467,2.309,23.471,1.154,25.779a38.981,38.981,0,0,1,10,26.549c0,37.707-23.086,46.172-45.018,48.48,3.848,3.078,6.926,9.234,6.926,18.469l-.385,26.934C122.74,189.689,123.895,192,128.9,192Z" fill="#fff"/>
    </g>
  </g>
</svg>
