<svg id="Layer_1" enable-background="new 0 0 512 512" height="512" viewBox="0 0 512 512" width="512" xmlns="http://www.w3.org/2000/svg"><g><path style="fill:#E5E5E5;" d="m446 16h-380c-36.393 0-66 29.607-66 66v348c0 36.393 29.607 66 66 66h334c19.75 0 38.318-7.691 52.284-21.657l38.059-38.059c13.966-13.965 21.657-32.534 21.657-52.284v-302c0-36.393-29.607-66-66-66zm-380 32h380c18.748 0 34 15.252 34 34v46h-448v-46c0-18.748 15.252-34 34-34zm-34 382v-270h448v208h-50c-25.364 0-46 20.636-46 46v50h-318c-18.748 0-34-15.252-34-34zm435.716-16.343-38.059 38.059c-3.977 3.976-8.61 7.056-13.657 9.137v-46.853c0-7.72 6.28-14 14-14h46.853c-2.082 5.046-5.161 9.681-9.137 13.657z"/><path style="fill:#E5E5E5;" d="m400 224c0-8.836-7.163-16-16-16h-256c-8.837 0-16 7.164-16 16s7.163 16 16 16h256c8.837 0 16-7.164 16-16z"/><path style="fill:#E5E5E5;" d="m352 288h-192c-8.837 0-16 7.164-16 16s7.163 16 16 16h192c8.837 0 16-7.164 16-16s-7.163-16-16-16z"/></g></svg>